<svg width="20" height="26" xmlns="http://www.w3.org/2000/svg"><g fill="none" fill-rule="evenodd"><path d="M1 4.002A2.999 2.999 0 014.006 1H15.91a3.006 3.006 0 013.006 3.002v19.023c0 1.425-.675 1.8-1.89 1.055l-6.545-4.018-.523-.32-.523.32L2.89 24.08c-1.218.747-1.89.372-1.89-1.055V4.002z" stroke="#F55B23" stroke-width="2"/><path d="M8.929 8.929H6.656a.967.967 0 00-.966.971c0 .54.432.972.966.972h2.273v2.273c0 .537.435.966.971.966.54 0 .972-.433.972-.966v-2.273h2.273a.967.967 0 00.966-.972.966.966 0 00-.966-.971h-2.273V6.656A.967.967 0 009.9 5.69a.966.966 0 00-.971.966v2.273z" fill="#F55B23"/></g></svg>