<?xml version="1.0" encoding="UTF-8"?>
<svg width="34px" height="34px" viewBox="0 0 34 34" version="1.1" xmlns="http://www.w3.org/2000/svg" xmlns:xlink="http://www.w3.org/1999/xlink">
    <!-- Generator: Sketch 52.1 (67048) - http://www.bohemiancoding.com/sketch -->
    <title>Group 7</title>
    <desc>Created with Sketch.</desc>
    <g id="Page-1" stroke="none" stroke-width="1" fill="none" fill-rule="evenodd">
        <g id="C2-episodes详情页" transform="translate(-1215.000000, -8.000000)">
            <g id="Group-8" transform="translate(1087.000000, 8.000000)">
                <g id="Group-7" transform="translate(128.000000, 0.000000)">
                    <rect id="Path" fill-opacity="0.32" fill="#FFFFFF" x="0" y="0" width="34" height="34"></rect>
                    <g id="提醒" transform="translate(8.000000, 6.000000)">
                        <path d="M6.8117925,0.165308099 C7.29243608,-0.54933847 8.10462453,-1 9,-1 C9.90698849,-1 10.7280436,-0.537613279 11.205996,0.19208117 C14.1718763,1.21558787 16.1981068,4.19528703 16.1981068,7.61504404 L16.1981068,11.9646495 C16.1981068,12.5959412 16.7096355,13.635441 17.7742832,14.989181 C19.0048608,16.521608 19.3198135,17.1579991 18.8101773,18.2660706 C18.5108756,18.9154916 17.9536333,19.2838984 17.2720668,19.4431067 C16.9334642,19.5222015 16.6673685,19.539394 16.2600321,19.539394 L1.78896162,19.539394 C0.561864221,19.539394 -0.309092306,19.2629507 -0.787845095,18.2855361 C-1.31880257,17.2015328 -1.02532802,16.5361432 0.108665509,14.9752789 C0.223005127,14.8176792 0.659445288,14.2390133 0.746286979,14.1209005 C1.4435735,13.1725265 1.76021778,12.5274121 1.76021778,11.9646495 L1.76021778,7.61504404 C1.76021778,4.16022824 3.81230099,1.16124749 6.8117925,0.165308099 Z" id="Combined-Shape" stroke-opacity="0.32" stroke="#000000" stroke-width="2"></path>
                        <path d="M9,24 C10.4219079,24 11.6127686,23.0107696 11.9219114,21.6829797 C11.5379028,21.6800003 6.84503174,21.6829797 6.0789066,21.6800003 C6.38932695,23.0060264 7.57934308,24 9,24 Z" id="Oval-3-Copy" fill-opacity="0.32" fill="#000000"></path>
                    </g>
                </g>
            </g>
        </g>
    </g>
</svg>